<svg xmlns="http://www.w3.org/2000/svg" viewBox="0 0 720 900" preserveAspectRatio="xMidYMid slice" aria-hidden="true" focusable="false">
  <defs>
    <linearGradient id="bg" x1="0.0" y1="0.0" x2="1.0" y2="0.0">
      <stop offset="0%" stop-color="#0D1B2A"></stop>
      <stop offset="26%" stop-color="#0D1B2A"></stop>
      <stop offset="52%" stop-color="#005CFF"></stop>
      <stop offset="76%" stop-color="#2486FF"></stop>
      <stop offset="100%" stop-color="#005CFF"></stop>
    </linearGradient>
    <radialGradient id="mass" cx="72%" cy="46%" r="66%">
      <stop offset="0%" stop-color="#48B0FF" stop-opacity="0.28"></stop>
      <stop offset="34%" stop-color="#2486FF" stop-opacity="0.24"></stop>
      <stop offset="66%" stop-color="#005CFF" stop-opacity="0.12"></stop>
      <stop offset="100%" stop-color="#0D1B2A" stop-opacity="0"></stop>
    </radialGradient>
    <radialGradient id="edge" cx="70%" cy="48%" r="78%">
      <stop offset="0%" stop-color="#0D1B2A" stop-opacity="0"></stop>
      <stop offset="70%" stop-color="#0D1B2A" stop-opacity="0"></stop>
      <stop offset="100%" stop-color="#0D1B2A" stop-opacity="0.72"></stop>
    </radialGradient>
    <linearGradient id="limb" x1="0.0" y1="0.0" x2="1.0" y2="0.0">
      <stop offset="0%" stop-color="#005CFF" stop-opacity="0"></stop>
      <stop offset="18%" stop-color="#005CFF" stop-opacity="0.22"></stop>
      <stop offset="48%" stop-color="#2486FF" stop-opacity="0.72"></stop>
      <stop offset="76%" stop-color="#48B0FF" stop-opacity="0.92"></stop>
      <stop offset="100%" stop-color="#2486FF" stop-opacity="0.42"></stop>
    </linearGradient>
    <filter id="arcGlow" x="-18%" y="-60%" width="136%" height="220%">
      <feGaussianBlur stdDeviation="12.0"></feGaussianBlur>
    </filter>
    <filter id="starGlow" x="-300%" y="-300%" width="700%" height="700%">
      <feGaussianBlur stdDeviation="3.6"></feGaussianBlur>
    </filter>
  </defs>

  <rect width="720" height="900" fill="url(#bg)"></rect>
  <rect width="720" height="900" fill="url(#mass)"></rect>
  <rect width="720" height="900" fill="url(#edge)"></rect>

  <g fill="none" stroke-linecap="round">
    <path d="M 294.0 -52.0 C 530.0 24.0 744.0 194.0 776.0 414.0 C 808.0 646.0 648.0 830.0 402.0 950.0" stroke="#48B0FF" stroke-opacity="0.20" stroke-width="1.0"></path>
    <path d="M 246.0 8.0 C 510.0 66.0 704.0 238.0 718.0 446.0 C 734.0 666.0 574.0 824.0 332.0 900.0" stroke="#2486FF" stroke-opacity="0.18" stroke-width="1.0"></path>
    <path d="M 336.0 104.0 C 520.0 106.0 680.0 232.0 696.0 408.0 C 714.0 600.0 556.0 734.0 358.0 748.0" stroke="#48B0FF" stroke-opacity="0.23" stroke-width="1.0"></path>
    <path d="M 378.0 166.0 C 526.0 154.0 650.0 246.0 664.0 392.0 C 680.0 548.0 564.0 652.0 408.0 654.0" stroke="#005CFF" stroke-opacity="0.46" stroke-width="1.2"></path>
    <path d="M 316.0 250.0 C 426.0 158.0 600.0 142.0 708.0 246.0 C 824.0 358.0 790.0 542.0 656.0 636.0" stroke="#48B0FF" stroke-opacity="0.21" stroke-width="1.0"></path>
    <path d="M 290.0 330.0 C 410.0 232.0 580.0 228.0 688.0 320.0 C 802.0 416.0 790.0 590.0 658.0 684.0" stroke="#2486FF" stroke-opacity="0.18" stroke-width="1.0"></path>
    <path d="M 266.0 416.0 C 410.0 318.0 604.0 330.0 710.0 446.0 C 822.0 568.0 752.0 736.0 590.0 794.0" stroke="#48B0FF" stroke-opacity="0.16" stroke-width="1.0"></path>
    <path d="M 302.0 486.0 C 434.0 402.0 610.0 426.0 700.0 548.0 C 794.0 680.0 708.0 820.0 536.0 848.0" stroke="#005CFF" stroke-opacity="0.36" stroke-width="1.2"></path>
    <path d="M 350.0 552.0 C 470.0 494.0 618.0 528.0 688.0 632.0 C 760.0 742.0 692.0 854.0 544.0 882.0" stroke="#2486FF" stroke-opacity="0.18" stroke-width="1.0"></path>
    <path d="M 204.0 744.0 C 374.0 660.0 582.0 666.0 766.0 782.0" stroke="#005CFF" stroke-opacity="0.16" stroke-width="1.0"></path>
    <path d="M 188.0 814.0 C 380.0 732.0 594.0 748.0 772.0 860.0" stroke="#48B0FF" stroke-opacity="0.13" stroke-width="1.0"></path>
  </g>

  <g fill="none" stroke-linecap="round">
    <path d="M 254.0 770.0 C 392.0 672.0 560.0 630.0 760.0 652.0" stroke="url(#limb)" stroke-width="34.0" stroke-opacity="0.58" filter="url(#arcGlow)"></path>
    <path d="M 254.0 770.0 C 392.0 672.0 560.0 630.0 760.0 652.0" stroke="url(#limb)" stroke-width="8.0" stroke-opacity="0.78"></path>
    <path d="M 254.0 770.0 C 392.0 672.0 560.0 630.0 760.0 652.0" stroke="#48B0FF" stroke-width="2.2" stroke-opacity="0.88"></path>
    <path d="M 274.0 786.0 C 408.0 696.0 574.0 660.0 754.0 680.0" stroke="#005CFF" stroke-width="1.0" stroke-opacity="0.32"></path>
  </g>

  <g fill="none" stroke="#2486FF" stroke-opacity="0.12" stroke-width="0.8">
    <path d="M 356.0 116.0 L 386.0 90.0 L 420.0 104.0 L 454.0 76.0"></path>
    <path d="M 496.0 274.0 L 532.0 246.0 L 570.0 272.0 L 614.0 238.0"></path>
    <path d="M 464.0 466.0 L 508.0 440.0 L 550.0 474.0 L 594.0 442.0"></path>
    <path d="M 492.0 676.0 L 538.0 646.0 L 582.0 682.0 L 632.0 644.0"></path>
  </g>

  <g fill="#48B0FF">
    <g opacity="0.14">
      <circle cx="44.0" cy="84.0" r="1.0"></circle><circle cx="108.0" cy="196.0" r="1.0"></circle>
      <circle cx="172.0" cy="292.0" r="1.0"></circle><circle cx="72.0" cy="382.0" r="1.0"></circle>
      <circle cx="198.0" cy="506.0" r="1.0"></circle><circle cx="116.0" cy="626.0" r="1.0"></circle>
      <circle cx="210.0" cy="742.0" r="1.0"></circle><circle cx="86.0" cy="824.0" r="1.0"></circle>
    </g>

    <g opacity="0.28">
      <circle cx="274.0" cy="92.0" r="1.0"></circle><circle cx="324.0" cy="214.0" r="1.0"></circle>
      <circle cx="286.0" cy="362.0" r="1.0"></circle><circle cx="346.0" cy="522.0" r="1.0"></circle>
      <circle cx="304.0" cy="674.0" r="1.0"></circle><circle cx="362.0" cy="838.0" r="1.0"></circle>
      <circle cx="428.0" cy="56.0" r="1.0"></circle><circle cx="470.0" cy="184.0" r="1.0"></circle>
      <circle cx="446.0" cy="336.0" r="1.0"></circle><circle cx="486.0" cy="566.0" r="1.0"></circle>
      <circle cx="430.0" cy="716.0" r="1.0"></circle><circle cx="518.0" cy="854.0" r="1.0"></circle>
      <circle cx="594.0" cy="92.0" r="1.0"></circle><circle cx="654.0" cy="216.0" r="1.0"></circle>
      <circle cx="612.0" cy="386.0" r="1.0"></circle><circle cx="684.0" cy="486.0" r="1.0"></circle>
      <circle cx="630.0" cy="592.0" r="1.0"></circle><circle cx="682.0" cy="814.0" r="1.0"></circle>
    </g>

    <g opacity="0.48">
      <circle cx="384.0" cy="138.0" r="1.7"></circle><circle cx="532.0" cy="248.0" r="1.7"></circle>
      <circle cx="418.0" cy="398.0" r="1.7"></circle><circle cx="578.0" cy="468.0" r="1.7"></circle>
      <circle cx="458.0" cy="612.0" r="1.7"></circle><circle cx="612.0" cy="742.0" r="1.7"></circle>
      <circle cx="396.0" cy="792.0" r="1.7"></circle><circle cx="668.0" cy="352.0" r="1.7"></circle>
    </g>

    <g opacity="0.82">
      <circle cx="520.0" cy="124.0" r="2.4"></circle><circle cx="646.0" cy="306.0" r="2.4"></circle>
      <circle cx="604.0" cy="408.0" r="2.4"></circle><circle cx="680.0" cy="528.0" r="2.4"></circle>
      <circle cx="568.0" cy="580.0" r="2.4"></circle><circle cx="638.0" cy="732.0" r="2.4"></circle>
      <circle cx="486.0" cy="806.0" r="2.4"></circle>
    </g>
  </g>

  <g fill="#48B0FF" opacity="0.58" filter="url(#starGlow)">
    <circle cx="520.0" cy="124.0" r="4.8"></circle><circle cx="646.0" cy="306.0" r="5.2"></circle>
    <circle cx="604.0" cy="408.0" r="4.8"></circle><circle cx="680.0" cy="528.0" r="5.0"></circle>
    <circle cx="568.0" cy="580.0" r="5.2"></circle><circle cx="638.0" cy="732.0" r="4.8"></circle>
    <circle cx="486.0" cy="806.0" r="4.4"></circle>
  </g>

  <g fill="#005CFF" opacity="0.56">
    <circle cx="250.0" cy="156.0" r="1.0"></circle><circle cx="312.0" cy="290.0" r="1.0"></circle>
    <circle cx="272.0" cy="594.0" r="1.0"></circle><circle cx="336.0" cy="758.0" r="1.0"></circle>
    <circle cx="444.0" cy="174.0" r="1.4"></circle><circle cx="592.0" cy="204.0" r="1.2"></circle>
    <circle cx="464.0" cy="346.0" r="1.3"></circle><circle cx="618.0" cy="504.0" r="1.4"></circle>
    <circle cx="450.0" cy="616.0" r="1.2"></circle><circle cx="600.0" cy="798.0" r="1.3"></circle>
  </g>

  <circle cx="674.0" cy="180.0" r="2.2" fill="#D4F73F"></circle>
  <circle cx="664.0" cy="702.0" r="2.0" fill="#D4F73F"></circle>
</svg>